<svg id="Layer_1" data-name="Layer 1" xmlns="http://www.w3.org/2000/svg" viewBox="0 0 100 100"><defs><style>.cls-1{fill:#fff;}.cls-2{fill:#221f1f;}</style></defs><rect class="cls-1" width="100" height="100" rx="5"/><path class="cls-2" d="M81.2,46.78a32.55,32.55,0,1,0,0,18.38V88.52h1.38v-77H81.2ZM50.66,57.38l20.9,20.9A30.89,30.89,0,0,1,50.66,87Zm1.18-.78H81a31,31,0,0,1-8.5,20.7ZM81,55.22H50.66V24.91A31.09,31.09,0,0,1,81,55.22ZM18.9,56A31.11,31.11,0,0,1,49.28,24.91V87A31.11,31.11,0,0,1,18.9,56Z"/><path class="cls-2" d="M37.6,48.13V55.8a4.06,4.06,0,0,0-2.8-1.09,4.51,4.51,0,0,0,0,9,4.1,4.1,0,0,0,2.8-1.08v.91h2V48.13ZM35.06,61.82a2.6,2.6,0,1,1,2.6-2.6A2.58,2.58,0,0,1,35.06,61.82Z"/><path class="cls-2" d="M64.5,48.61v-4.4a2.48,2.48,0,0,1,2.62-2.53,3.9,3.9,0,0,1,.74.08V39.83a3.85,3.85,0,0,0-.69-.06,3.22,3.22,0,0,0-2.67,1.36V39.94h-2v8.67Z"/></svg>